<?xml version="1.0" encoding="utf-8"?>
<svg version="1.1" xmlns="http://www.w3.org/2000/svg" xmlns:xlink="http://www.w3.org/1999/xlink" x="0px" y="0px"
	 viewBox="174 130 603 631" style="enable-background:new 0 0 3000 3000;" xml:space="preserve">
  <desc>The illustration depicts a single, irregular, blob-like shape in a shade of light blue, set against a solid black background. The shape has smooth, curvilinear edges and resembles an abstract organic form.</desc>
<g id="Fluid">
	<path style="fill:#71A2FF;" d="M260.376,172.202c21.338-11.01,43.035-22.149,66.723-27.05c23.688-4.901,50.061-2.81,69.627,10.895
		c38.812,27.188,34.418,82.703,49.594,126.423c18.261,52.609,67.163,89.739,117.086,117.747
		c49.923,28.008,104.173,50.729,145.975,89.053c41.802,38.324,69.012,98.358,47.574,149.854
		c-17.337,41.644-61.331,67.166-104.901,83.49c-78.519,29.419-168.744,38.127-246.634,7.211
		c-77.891-30.915-138.717-107.207-132.987-187.824c2.581-36.316,17.689-73.413,6.046-108.06
		c-8.269-24.605-28.705-43.348-47.986-61.423c-36.563-34.276-57.341-66.826-34.049-114.415
		C213.849,222.542,222.138,191.931,260.376,172.202z"/>
</g>
</svg>
