<?xml version="1.0" encoding="utf-8"?>
<svg version="1.1" xmlns="http://www.w3.org/2000/svg" xmlns:xlink="http://www.w3.org/1999/xlink" x="0px" y="0px"
	 viewBox="1061 114 1012 756" style="enable-background:new 0 0 3000 3000;" xml:space="preserve">
<g id="Fluid">
	<path style="fill:#71A2FF;" d="M1129.071,338.18c-24.94-28.413-48.659-61.491-48.46-98.621c0.246-46.053,39.712-86.11,85.677-99.53
		c45.964-13.42,96.231-4.445,140.6,13.23c44.37,17.675,84.529,43.606,126.625,65.81c42.096,22.204,87.689,41.066,135.714,42.534
		c82.141,2.511,157.526-45.645,239.472-51.627c60.584-4.422,122.706,15.682,168.093,54.399
		c45.387,38.717,73.427,95.525,75.873,153.713c1.733,41.25-10.645,85.329-43.316,112.233
		c-30.141,24.821-72.571,31.247-112.243,29.071c-39.673-2.176-78.53-11.856-118.131-15.008
		c-114.229-9.089-231.748,40.501-301.89,127.391c-46.278,57.328-76.448,132.233-144.078,164.67
		c-57.375,27.518-133.298,13.156-175.463-33.191s-46.673-120.395-10.419-171.128c18.973-26.551,46.717-45.904,71.818-67.277
		c25.101-21.373,48.919-46.933,55.492-78.492c6.935-33.3-12.189-67.283-43.008-82.392
		C1190.647,383.974,1160.215,373.661,1129.071,338.18z"/>
</g>
</svg>
