<?xml version="1.0" encoding="utf-8"?>
<svg version="1.1" xmlns="http://www.w3.org/2000/svg" xmlns:xlink="http://www.w3.org/1999/xlink" x="0px" y="0px"
	 viewBox="2112 125 749 963" style="enable-background:new 0 0 3000 3000;" xml:space="preserve">
  <desc>An abstract, irregularly shaped light blue blob with wavy edges floats against a solid black background. The shape resembles a distorted human torso or a casual paint splat.</desc>
<g id="Fluid">
	<path style="fill:#71A2FF;" d="M2456.332,174.295c23.439-14.469,51.201-21.072,78.744-25.21
		c50.017-7.515,102.926-7.31,149.257,12.252c46.332,19.562,84.619,61.568,87.495,110.015
		c4.175,70.327-61.552,125.382-84.081,192.431c-20.127,59.898-4.079,125.976,24.111,182.808
		c28.19,56.832,67.954,107.664,98.877,163.174c22.354,40.128,40.341,86.702,27.239,130.424
		c-16.794,56.042-78.2,87.824-136.368,104.898c-155.654,45.691-330.283,28.484-472.983-46.604
		c-36.691-19.307-73.153-44.351-89.028-81.472c-24.639-57.612,9.274-124.444,57.134-166.546
		c47.86-42.102,108.528-68.394,159.344-107.183c22.117-16.883,43.842-39.545,42.862-66.629
		c-1.157-31.971-33.117-54.525-63.864-66.972c-22.882-9.263-47.13-15.928-68.148-28.615s-38.977-33.225-39.76-57.021
		c-1.027-31.192,28.236-57.107,59.702-65.14c48.778-12.452,100.985,15.597,147.781,1.09c26.714-8.282,42.748-30.655,25.859-53.201
		c-13.048-17.418-36.568-24.164-45.323-45.64C2401.568,227.761,2428.012,191.778,2456.332,174.295z"/>
</g>
</svg>
