<?xml version="1.0" encoding="utf-8"?>
<svg version="1.1" xmlns="http://www.w3.org/2000/svg" xmlns:xlink="http://www.w3.org/1999/xlink" x="0px" y="0px"
	 viewBox="167 922 989 711" style="enable-background:new 0 0 3000 3000;" xml:space="preserve">
  <desc>An abstract illustration features a large, irregularly shaped blob of light blue against a solid black background. The blob has smooth, wavy edges and an organic, fluid appearance.</desc>
<g id="Fluid">
	<path style="fill:currentColor;" d="M243.169,964.087c49.076-33.517,122.531-28.921,166.645,10.426
		c30.027,26.783,45.95,65.865,76.858,91.71c35.365,29.573,89.036,37.228,131.853,18.806c42.355-18.223,70.207-57.14,105.445-86.112
		c63.741-52.407,155.868-71.134,236.316-48.036c80.448,23.098,146.661,87.286,169.844,164.65
		c7.811,26.065,10.779,54.889-0.65,79.697c-21.093,45.783-84.593,65.644-99.298,113.666
		c-21.558,70.405,77.824,135.875,57.535,206.626c-12.656,44.134-65.061,64.219-111.317,75.589
		c-70.741,17.387-144.741,29.223-216.67,17.112c-71.928-12.11-141.966-51.675-173.719-114.709
		c-18.245-36.218-22.915-77.451-39.412-114.432c-16.496-36.981-51.728-71.862-93.54-68.477
		c-49.81,4.032-78.034,57.156-122.749,78.576c-34.788,16.665-79.74,11.396-109.314-12.812
		c-29.574-24.208-42.036-65.939-30.306-101.479c12.418-37.625,49.233-70.712,40.76-109.331
		c-4.902-22.343-24.491-33.161-34.52-51.949c-8.504-15.929-9.417-37.847-7.893-55.266
		C192.255,1021.59,211.569,985.669,243.169,964.087z"/>
</g>
</svg>
