<?xml version="1.0" encoding="utf-8"?>
<svg version="1.1" xmlns="http://www.w3.org/2000/svg" xmlns:xlink="http://www.w3.org/1999/xlink" x="0px" y="0px"
	 viewBox="1365 871 836 727" style="enable-background:new 0 0 3000 3000;" xml:space="preserve">
  <desc>A light blue, irregularly shaped blob or amoeba-like form is depicted against a black background. The shape has smooth, curvilinear edges, resembling a bean or a rounded organic mass.</desc>
<g id="Fluid">
	<path style="fill:currentColor;" d="M1382.501,1084.773c6.749-59.438,43.367-114.14,94.074-148.962
		c50.707-34.822,114.388-50.428,176.73-48.372c27.513,0.907,55.373,5.254,79.983,17.078c24.61,11.824,45.765,31.82,54.241,56.924
		c14.291,42.328-9.036,89.134,1.213,132.525c9.621,40.73,47.611,70.588,88.434,85.183c40.823,14.595,85.074,16.927,128.278,22.323
		c43.205,5.396,87.71,14.738,121.975,40.532c56.359,42.427,71.082,123.687,44.079,187.312
		c-27.003,63.625-88.883,109.563-156.67,131.849c-67.788,22.285-141.235,23.391-212.633,17.471
		c-80.989-6.715-162.715-22.723-233.366-61.262c-70.65-38.538-129.367-102.122-146.264-178.334
		c-4.722-21.3-5.715-44.987,1.939-65.792c3.008-8.177,17.077-21.511,17.516-28.793c0.647-10.734-12.184-18.319-19.316-26.703
		C1391.524,1181.087,1377.178,1131.654,1382.501,1084.773z"/>
</g>
</svg>
