<?xml version="1.0" encoding="utf-8"?>
<svg version="1.1" xmlns="http://www.w3.org/2000/svg" xmlns:xlink="http://www.w3.org/1999/xlink" x="0px" y="0px"
	 viewBox="2116 1224 724 917" style="enable-background:new 0 0 3000 3000;" xml:space="preserve">
  <desc>An illustration features a large, irregular, and organic light blue shape floating against a stark black background. The blob-like form has smooth, undulating curves reminiscent of a fluid or abstract amoeba.</desc>
<g id="Fluid">
	<path style="fill:#71A2FF;" d="M2576.886,1265.766c26.56-20.627,63.158-26.545,97.011-21.994
		c59.543,8.005,113.284,47.958,136.183,101.243c22.899,53.286,14.106,117.926-22.282,163.803
		c-28.211,35.568-71.184,60.083-92.512,99.812c-28.461,53.013-10.682,117.55,13.17,172.613
		c23.852,55.063,53.964,111.288,48.593,170.686c-7.596,83.999-88.333,149.547-174.59,166.09
		c-86.258,16.542-175.596-6.58-256.683-39.27c-53.811-21.694-107.105-48.687-145.219-91.068s-58.508-103.022-39.012-155.762
		c15.312-41.422,52.542-72.327,93.047-92.918c40.504-20.591,85.026-32.633,127.671-48.772s84.851-37.44,113.515-71.738
		s40.913-84.098,19.944-123.177c-10.411-19.404-28.226-35.339-33.947-56.458c-5.579-20.596,2.409-43.984,19.615-57.431
		c24.401-19.069,59.529,2.29,64.663-28.951C2551.722,1317.975,2543.655,1291.573,2576.886,1265.766z"/>
</g>
</svg>
