<?xml version="1.0" encoding="utf-8"?>
<svg version="1.1" xmlns="http://www.w3.org/2000/svg" xmlns:xlink="http://www.w3.org/1999/xlink" x="0px" y="0px"
	 viewBox="190 1754 1206 504" style="enable-background:new 0 0 3000 3000;" xml:space="preserve">
  <desc>An abstract, irregular blue shape with soft, undulating edges floats against a solid black background. The shape resembles a fluid or organic form.</desc>
<g id="Fluid">
	<path style="fill:currentColor;" d="M227.929,1819.843c25.365-34.588,74.728-46.099,118.478-40.714
		c75.07,9.239,138.036,58.26,210.342,79.698c66.497,19.716,138.452,15.257,206.527,1.339s133.715-36.954,200.901-54.392
		c67.186-17.438,137.363-29.311,206.316-20.189c68.952,9.121,137.016,41.719,174.938,97.664
		c37.922,55.945,38.758,136.49-8.033,185.883c-34.594,36.517-88.411,51.293-139.863,52.249
		c-51.452,0.956-102.192-10.109-153.119-17.195c-50.927-7.086-104.199-10.002-152.663,6.584
		c-38.532,13.188-71.428,37.803-104.068,61.448c-32.64,23.645-66.713,47.164-106.167,57.55
		c-39.454,10.385-85.893,5.128-114.557-22.855c-31.67-30.917-33.575-78.74-39.818-121.651
		c-6.244-42.912-25.708-91.968-69.595-102.354c-38.497-9.11-76.584,16.465-116.191,18.298
		C262.876,2004.836,180.07,1885.104,227.929,1819.843z"/>
</g>
</svg>
