<?xml version="1.0" encoding="utf-8"?>
<svg version="1.1" xmlns="http://www.w3.org/2000/svg" xmlns:xlink="http://www.w3.org/1999/xlink" x="0px" y="0px"
	 viewBox="1563 1718 505 602" style="enable-background:new 0 0 3000 3000;" xml:space="preserve">
  <desc>An abstract illustration shows a light blue, irregular, amorphous shape with rounded edges against a solid black background. The organic form has a fluid, blob-like appearance.</desc>
<g id="Fluid">
	<path style="fill:#71A2FF;" d="M1574.999,1879.249c-3.506-50.692,25.31-102.193,71.306-127.441
		c46.083-25.296,102.718-24.002,155.372-17.378c41.104,5.171,82.965,13.584,117.651,35.346
		c34.686,21.762,61.049,59.44,58.088,99.073c-4.17,55.806-62.95,101.558-54.514,156.919
		c10.813,70.963,121.849,96.139,132.056,167.184c5.569,38.764-24.062,75.843-60.602,93.296
		c-36.54,17.453-78.679,19.625-119.459,21.471c-45.161,2.045-91.656,3.914-134.29-10.508s-80.999-49.28-84.255-92.501
		c-1.79-23.759,6.933-46.964,15.635-69.278c18.036-46.251,26.06-96.915-14.332-134.253
		C1618.516,1965,1578.942,1936.263,1574.999,1879.249z"/>
</g>
</svg>
