<?xml version="1.0" encoding="utf-8"?>
<svg version="1.1" xmlns="http://www.w3.org/2000/svg" xmlns:xlink="http://www.w3.org/1999/xlink" x="0px" y="0px"
	 viewBox="2193 2207 743 616" style="enable-background:new 0 0 3000 3000;" xml:space="preserve">
  <desc>An abstract illustration features a light blue, organic, blob-like shape with smooth, rounded edges, floating against a solid black background.</desc>
<g id="Fluid">
	<path style="fill:#71A2FF;" d="M2242.018,2265.85c43.337-47.342,123.843-58.273,179.195-24.333
		c49.906,30.601,76.461,89.641,129.1,115.697c76.953,38.092,173.998-9.614,256.146,16.688
		c53.846,17.24,92.949,65.397,107.49,117.995c14.541,52.598,7.184,108.891-9.93,160.773
		c-15.305,46.401-39.792,92.168-80.877,120.761c-33.711,23.461-76.039,33.401-117.674,34.779
		c-41.635,1.377-83.063-5.258-124.085-12.222c-55.588-9.437-112.515-20.05-160.435-48.655s-85.516-79.463-80.847-133.387
		c3.896-44.994,26.073-86.755-15.268-122.484c-24.316-21.015-58.867-27.26-83.539-48.021
		C2191.521,2401.556,2201.84,2309.741,2242.018,2265.85z"/>
</g>
</svg>
