<?xml version="1.0" encoding="utf-8"?>
<svg version="1.1" xmlns="http://www.w3.org/2000/svg" xmlns:xlink="http://www.w3.org/1999/xlink" x="0px" y="0px"
	 viewBox="77 2099 694 714" style="enable-background:new 0 0 3000 3000;" xml:space="preserve">
  <desc>A large, irregularly shaped light blue blob is prominently displayed against a stark black background. Its smooth, organic curves give it an abstract, fluid, or amoeba-like appearance.</desc>
<g id="Fluid">
	<path style="fill:currentColor;" d="M138.904,2210.274c17.725-30.882,40.744-60.024,72.077-78.474
		c31.333-18.45,72.078-24.712,105.37-9.741c36.836,16.565,57.833,55.335,65.058,93.714c7.224,38.379,3.31,77.775,4.555,116.755
		c1.244,38.98,8.627,79.873,34.475,109.991c26.2,30.528,67.459,45.349,107.939,52.912c40.48,7.562,82.175,9.218,121.892,19.867
		c39.717,10.65,78.886,32.399,96.731,68.036c20.346,40.63,7.695,91.406-22.046,126.312c-29.742,34.906-73.734,56.062-118.561,69.663
		c-90.907,27.582-190.71,27.523-281.581-0.165c-36.522-11.128-76.461-32.438-81.685-68.826c-2.973-20.705,6.41-40.97,10.323-61.531
		c3.913-20.56-0.488-46.148-20.392-54.681c-35.31-15.139-80.176,26.966-104.578-20.016c-6.466-12.45-5.984-28.741-10.05-42.08
		c-6.323-20.741-14.444-40.51-19.011-61.821C80.677,2382.729,93.887,2288.705,138.904,2210.274z"/>
</g>
</svg>
