<?xml version="1.0" encoding="utf-8"?>
<svg version="1.1" xmlns="http://www.w3.org/2000/svg" xmlns:xlink="http://www.w3.org/1999/xlink" x="0px" y="0px"
	 viewBox="1017 2228 1053 672" style="enable-background:new 0 0 3000 3000;" xml:space="preserve">
  <desc>An illustration features a light blue, amorphous, blob-like shape with soft, irregular edges, set against a solid black background.</desc>
<g id="Fluid">
	<path style="fill:currentColor;" d="M1071.1,2321.208c45.177-68.984,150.629-93.609,223.848-52.273
		c41.154,23.233,69.74,62.172,106.69,91.18c77.893,61.149,184.592,72.946,284.87,81.614
		c100.279,8.668,206.773,18.872,286.418,77.912c37.481,27.784,67.545,67.015,75.241,111.826
		c6.753,39.323-4.721,81.197-30.761,112.264c-26.041,31.068-66.23,50.831-107.747,52.985
		c-63.365,3.287-120.886-31.643-177.588-58.953c-56.702-27.31-126.94-47.361-181.402-16.143
		c-25.301,14.503-43.147,38.085-63.319,58.692c-93.949,95.978-252.834,127.142-378.568,74.255
		c-35.612-14.979-72.48-42.897-70.849-80.139c1.417-32.363,30.974-55.917,56.29-77.375c25.314-21.457,50.698-52.058,40.667-82.986
		c-8.323-25.659-27.352-41.969-32.966-69.275c-5.466-26.591-22.274-41.267-34.963-65.268
		C1041.103,2430.615,1040.264,2368.294,1071.1,2321.208z"/>
</g>
</svg>
